<svg xmlns="http://www.w3.org/2000/svg" xmlns:xlink="http://www.w3.org/1999/xlink" viewBox="0 0 1366 752.87"><defs><style>.cls-1{fill:url(#linear-gradient);}</style><linearGradient id="linear-gradient" x1="911.41" y1="243.45" x2="43.73" y2="748.61" gradientUnits="userSpaceOnUse"><stop offset="0" stop-color="#0056d4"/><stop offset="1" stop-color="#00e294"/></linearGradient></defs><title>bg</title><g id="Layer_2" data-name="Layer 2"><g id="Layer_1-2" data-name="Layer 1"><path class="cls-1" d="M125.81,711.19a272.93,272.93,0,0,1,81.44,12.4c19.15,6,37.29,22,57.82,19.44,12.84-1.59,24.67-7.49,36.62-12.43,70.07-29,152.89-25.14,220,10.12,4.73,2.48,9.67,5.18,15,5,4.54-.16,8.7-2.39,12.74-4.48,76.28-39.38,171.6-39.41,247.9-.09,4.13,2.13,8.41,4.42,13,4.46,4.86,0,9.36-2.36,13.67-4.59,75-38.78,168.53-39.25,243.89-1.24,5.32,2.69,10.89,5.63,16.84,5.36,4.13-.19,8-1.92,11.77-3.62,40.3-18.22,79.83-30.33,124.63-30.33A271,271,0,0,1,1366,752.87V358s-112-157-331-157S726,0,726,0H0V742A271.11,271.11,0,0,1,125.81,711.19Z"/></g></g></svg>